# xmcd
#
# Track frame offsets:
#	150
#	10908
#	21880
#	42490
#	59504
#	75266
#	101120
#	114760
#	131244
#	143704
#	155395
#	172742
#
# Disc length: 2490 seconds
#
# Revision: 1
# Processed by: cddbd v1.5.2PL0 Copyright (c) Steve Scherf et al.
# Submitted via: audiograbber 1.83.01
#
DISCID=9109b80c
DTITLE=Country Fried Grass  - Country Fried Saturday Night
DYEAR=1900
DGENRE=Bluegrass
TTITLE0=Just Another Day of the Blues
TTITLE1=Country Fried Saturday Night
TTITLE2=Wagon Wheel
TTITLE3=Heart Made of Stone
TTITLE4=Slewfoot
TTITLE5=Leave My Girl Alone
TTITLE6=Nine Pound Hammer
TTITLE7=Possum Stew
TTITLE8=On The Bottom, Lookin' Down
TTITLE9=Take This Hammer
TTITLE10=Wild Bill
TTITLE11=Black Mountain Rag
EXTD=
EXTT0=
EXTT1=
EXTT2=
EXTT3=
EXTT4=
EXTT5=
EXTT6=
EXTT7=
EXTT8=
EXTT9=
EXTT10=
EXTT11=
PLAYORDER=
